<?xml version="1.0" encoding="utf-8"?>
<!-- Generator: Adobe Illustrator 26.0.1, SVG Export Plug-In . SVG Version: 6.00 Build 0)  -->
<svg version="1.1" id="e7334088-53de-4589-99a2-090044ddfc90"
	 xmlns="http://www.w3.org/2000/svg" xmlns:xlink="http://www.w3.org/1999/xlink" x="0px" y="0px" viewBox="0 0 973.5 587"
	 style="enable-background:new 0 0 973.5 587;" xml:space="preserve">
<style type="text/css">
	.st0{fill:#CAD6EA;}
	.st1{fill:#CACACA;}
	.st2{fill:#FBBEBE;}
	.st3{fill:#3F3D56;}
	.st4{fill:#FFFFFF;}
	.st5{fill:#4580D6;}
	.st6{fill:#CCCCCC;}
	.st7{fill:#E6E6E6;}
	.st8{fill:#FFDE76;}
	.st9{fill:#FFB641;}
	.st10{fill:#38484A;}
</style>
<g id="f9b32178-6d95-472d-b482-6662972666de">
	<path id="f4b94a19-cbe0-459a-95a6-6ea3b3d72055" class="st0" d="M503.1,470c-6.3,0-11.5,5.1-11.5,11.5s5.1,11.5,11.5,11.5
		c6.3,0,11.5-5.1,11.5-11.5l0,0l0,0C514.6,475.1,509.4,470,503.1,470z M503.1,488.5c-3.9,0-7.1-3.2-7.1-7.1c0-3.9,3.2-7.1,7.1-7.1
		c3.9,0,7.1,3.2,7.1,7.1c0,0,0,0,0,0v0C510.2,485.4,507,488.5,503.1,488.5z"/>
	<path id="abc0e0b3-f22e-4bee-9929-c6879640924e" class="st0" d="M458.9,461.1h44.2v43.7c0,3.2-2.6,5.8-5.8,5.8c0,0,0,0,0,0h-32.7
		c-3.2,0-5.8-2.6-5.8-5.8c0,0,0,0,0,0L458.9,461.1L458.9,461.1z"/>
</g>
<path id="e24b6f19-a0a0-4e73-9cfc-bbb7635ad236" class="st1" d="M665.1,513.3H0.9c-0.6-0.1-1-0.6-0.9-1.1c0.1-0.5,0.4-0.8,0.9-0.9
	h664.2c0.6,0.1,1,0.6,0.9,1.1C666,512.8,665.6,513.2,665.1,513.3z"/>
<circle class="st2" cx="160.6" cy="412" r="14"/>
<circle class="st2" cx="191.6" cy="412" r="14"/>
<path class="st3" d="M273.8,512.3H81.4c-4.7,0-8.5-3.8-8.5-8.5V387.1c0-4.7,3.8-8.5,8.5-8.5h192.3c4.7,0,8.5,3.8,8.5,8.5v116.7
	C282.3,508.5,278.5,512.3,273.8,512.3z"/>
<circle id="e793da3b-cee2-4a15-ae11-6dab45a6c728" class="st4" cx="177.2" cy="445.5" r="5.6"/>
<path class="st3" d="M868,210.5H618.1c-2.8,0-5-2.2-5-5v-47.1h2v47.1c0,1.7,1.3,3,3,3H868c1.7,0,3-1.3,3-3V158h2v47.4
	C873,208.2,870.8,210.4,868,210.5z"/>
<rect x="371.4" y="157.4" class="st3" width="587.2" height="2"/>
<circle id="a67a4451-c7cc-402c-b29d-5a705f3c9418" class="st5" cx="371.4" cy="158.2" r="17.2"/>
<circle id="abdb3fbf-f68e-433e-a33f-153626b38c76" class="st5" cx="546.2" cy="158.2" r="17.2"/>
<circle id="ac293633-0933-4e21-a8aa-bc27ca4fbccc" class="st3" cx="664.9" cy="208.8" r="17.2"/>
<circle id="a0cd768d-b738-4d4b-9ab3-78ab535c7573" class="st6" cx="755.1" cy="208.8" r="17.2"/>
<circle id="b9eb3d2e-31e0-4fe2-be5c-79abb86bc227" class="st5" cx="711.4" cy="158.2" r="17.2"/>
<circle id="aa04baac-fce0-420a-b86a-4a97f3079928" class="st5" cx="956.3" cy="158.2" r="17.2"/>
<circle id="e92cf92c-058e-415c-ba96-766a57ee18d9" class="st5" cx="872" cy="158.2" r="17.2"/>
<rect id="ac5bf8cc-574d-4509-9338-881c836fd832" x="648.5" class="st3" width="31.9" height="22"/>
<rect id="ad5a043d-52f1-4931-b771-e4991ef7f7f7" x="355.6" class="st5" width="31.9" height="22"/>
<rect id="e5d95e83-bdd9-4322-95a9-5a9c4b449a8f" x="463.7" class="st6" width="31.9" height="22"/>
<path class="st3" d="M424.8,159.4c-0.6,0-1-0.4-1-1V109c0-2.8,2.2-5,5-5h48.7c0.6,0,1,0.4,1,1s-0.4,1-1,1h-48.7c-1.7,0-3,1.3-3,3
	v49.4C425.8,158.9,425.3,159.4,424.8,159.4z"/>
<circle id="b0a7c1c1-8f27-441f-a84a-e44462cc473e" class="st7" cx="479.7" cy="104.6" r="17.2"/>
<path class="st3" d="M809.8,158.4h-2V109c0-2.8,2.2-5,5-5h48.7v2h-48.7c-1.7,0-3,1.3-3,3V158.4z"/>
<circle id="b3140cf1-cdb8-48ff-81af-ce41ed4f5739" class="st7" cx="863.7" cy="104.6" r="17.2"/>
<g>
	<path class="st8" d="M379.9,511.8h12.3c34.8,0,34.5-27.8,32.7-40.3c-0.5-3.4-3.4-6-6.9-6l0,0c-1.4,0-2.7,0.4-3.9,1.2
		c-10.5,7-15.5,5.4-17.8,2.8c-1.5-1.7-1.6-4.2-0.3-6c3.1-4.2,5-9.4,5-15.1c0-14-11.2-25.3-25.1-25.5c-14.1-0.2-25.7,11.3-25.8,25.4
		c0,4.4,1.1,8.6,3.1,12.2c0.6,1.2,0.6,2.6-0.2,3.7C338.6,484,347.3,511.8,379.9,511.8z"/>
	<g>
		<path class="st9" d="M396,463.5c3.1-4.2,5-9.4,5-15.1c0-14-11.2-25.3-25.1-25.5c-1,0-2,0-3,0.1c12.8,1.3,22.8,12.2,22.8,25.3
			c0,5.6-1.8,10.9-5,15.1c-1.3,1.8-1.3,4.4,0.3,6c1.4,1.6,3.9,2.9,8.2,1.8c-1.2-0.4-2.1-1.1-2.8-1.8
			C394.8,467.9,394.7,465.4,396,463.5z"/>
		<path class="st9" d="M386.9,511.8h5.4c34.8,0,34.5-27.8,32.7-40.3c-0.5-3.4-3.4-6-6.9-6l0,0c-0.9,0-1.8,0.2-2.7,0.5
			c2.2,0.9,3.8,2.9,4.2,5.4C421.4,484,421.6,511.8,386.9,511.8z"/>
		<path class="st9" d="M408.1,481.5c-4.7-0.5-9.2-1.7-13.5-3.7c-6-2.9-10.2-9-17.3-9.3c-9.7-0.4-14.7,9.9-13.1,18.4
			c2,10.3,12.5,16.5,22.4,16.5c16.3,0,24.8-9.7,28.2-15c1.2-1.8,0.9-4.2-0.6-5.7C412.4,481,410.3,481.7,408.1,481.5z"/>
	</g>
	<path class="st10" d="M360.4,442.2c-0.7-0.2-1.2-0.9-1-1.6l0.6-2.7c0.2-0.7,0.9-1.2,1.6-1c0.7,0.2,1.2,0.9,1,1.6l-0.6,2.7
		c-0.1,0.6-0.7,1-1.3,1C360.6,442.2,360.5,442.2,360.4,442.2z"/>
	<path class="st9" d="M347.2,433.4c-1.2-0.8-2.9-0.3-3.3,1.2c-1.1,4.4,3.3,8.3,3.3,8.3c-1.3-0.2-2.4,0-3.2,0.2
		c-1.3,0.4-2.2,1.6-2.2,2.9l0,0c0,1.4,0.9,2.6,2.3,3c1,0.3,2.1,0.8,3.2,1.5c7.3,5.3,13.4-0.3,9.7-3.9c-3.7-3.6-3.1-11.6-3.1-11.6
		C351.2,435.6,348.8,434.4,347.2,433.4z"/>
	<g>
	</g>
	<g>
	</g>
	<g>
	</g>
	<g>
	</g>
	<g>
	</g>
	<g>
	</g>
	<g>
	</g>
	<g>
	</g>
	<g>
	</g>
	<g>
	</g>
	<g>
	</g>
	<g>
	</g>
	<g>
	</g>
	<g>
	</g>
	<g>
	</g>
</g>
</svg>
